<?xml version="1.0" standalone="no"?>
<!DOCTYPE svg PUBLIC "-//W3C//DTD SVG 20010904//EN"
 "http://www.w3.org/TR/2001/REC-SVG-20010904/DTD/svg10.dtd">
<svg version="1.0" xmlns="http://www.w3.org/2000/svg"
 width="694.000000pt" height="694.000000pt" viewBox="0 0 694.000000 694.000000"
 preserveAspectRatio="xMidYMid meet">

<g transform="translate(0.000000,694.000000) scale(0.100000,-0.100000)"
fill="#000000" stroke="none">
<path d="M4428 5792 c-54 -3 -66 -22 -15 -22 35 0 50 -16 61 -66 4 -18 2 -36
-6 -47 -19 -25 -12 -187 8 -187 11 0 14 21 13 108 -1 59 -4 132 -8 162 l-6 55
-47 -3z"/>
<path d="M4250 5735 c-10 -12 -6 -20 23 -47 19 -18 39 -42 45 -53 10 -17 11
-12 12 28 0 27 -5 57 -10 68 -13 22 -52 25 -70 4z"/>
<path d="M4367 5732 c-22 -24 -21 -32 3 -32 15 0 20 7 20 25 0 30 -2 30 -23 7z"/>
<path d="M4020 5722 c-42 -34 -18 -126 31 -117 10 2 22 -1 25 -7 5 -7 0 -9
-14 -6 -13 4 -22 1 -22 -5 -1 -18 -50 42 -50 60 0 13 -3 13 -15 3 -19 -16 -19
-6 1 28 l16 27 -20 -25 c-12 -14 -26 -44 -32 -66 -13 -45 -28 -53 -114 -55
l-41 -2 35 -6 c28 -6 18 -9 -55 -15 -179 -16 -240 -23 -200 -25 45 -1 312 15
395 25 35 3 51 2 45 -4 -8 -8 -752 -68 -1092 -89 -77 -4 -103 -9 -103 -20 0
-17 15 -16 242 2 866 70 898 72 898 56 0 -5 -39 -12 -87 -16 -49 -4 -155 -13
-238 -20 -82 -7 -136 -13 -118 -14 47 -2 63 -11 63 -36 0 -13 7 -30 15 -39 8
-8 15 -17 15 -19 0 -3 -24 -9 -52 -13 -53 -8 -53 -8 -18 -15 l35 -6 -33 -2
c-32 -1 -92 -28 -92 -42 0 -3 14 -5 30 -4 17 1 33 -1 35 -5 6 -10 -111 -21
-155 -15 -21 3 -48 -2 -68 -11 -22 -10 -63 -15 -135 -15 -68 0 -97 -3 -87 -9
16 -10 -23 -14 -134 -11 -32 0 -65 -4 -72 -10 -20 -17 -34 -1 -34 39 0 55 -9
78 -35 92 -29 15 -59 6 -73 -23 -9 -18 -11 -19 -11 -4 -1 18 -21 25 -21 7 0
-5 -12 -9 -27 -9 -25 2 -25 2 -5 6 13 3 26 11 29 19 3 8 12 14 19 14 12 0 12
4 4 20 -6 11 -16 18 -23 14 -7 -3 -1 4 13 15 20 17 22 23 11 30 -7 5 -22 6
-32 4 -10 -3 -19 -1 -19 5 0 13 54 23 58 11 2 -5 8 -9 14 -9 6 0 5 7 -3 16 -7
8 -21 13 -32 10 -11 -3 -28 4 -40 15 l-21 19 25 0 c14 0 31 6 37 12 7 7 18 13
25 14 7 0 26 2 42 4 19 1 23 4 13 7 -13 3 -18 15 -18 39 0 19 -4 34 -10 34 -5
0 -10 -16 -10 -35 0 -19 -5 -35 -11 -35 -7 0 -10 15 -7 38 l3 38 -55 -8 c-60
-8 -120 -1 -120 14 0 5 -6 6 -12 2 -7 -5 -21 -9 -31 -9 -24 -2 -67 -49 -67
-74 0 -11 -6 -21 -12 -24 -9 -3 -7 -9 6 -19 17 -13 17 -15 2 -21 -9 -4 -16 -2
-16 4 0 6 -6 9 -12 6 -8 -2 -12 -15 -10 -30 2 -15 -1 -27 -7 -27 -6 0 -11 -7
-11 -15 0 -8 8 -15 18 -15 11 0 24 -11 30 -25 6 -14 16 -25 21 -25 17 0 8 -51
-11 -61 -15 -8 -19 -8 -14 0 5 7 -5 11 -28 11 -19 0 -38 5 -41 10 -10 17 -122
12 -129 -5 -3 -8 -18 -15 -32 -15 -15 0 -36 -7 -45 -16 -19 -17 -57 -27 -94
-24 -11 1 -27 2 -36 3 -9 1 -15 6 -12 13 9 24 -42 1 -69 -30 -22 -27 -26 -39
-21 -73 l5 -41 68 -7 67 -7 7 -71 c4 -39 12 -74 18 -78 23 -14 -34 -19 -297
-23 -148 -2 -288 -6 -310 -9 -22 -3 -79 -8 -127 -12 l-88 -7 0 31 c0 16 -4 32
-10 36 -30 18 -417 -3 -595 -33 l-110 -18 3 -39 c2 -22 6 -42 8 -45 3 -2 29
-7 57 -10 l52 -5 9 -77 c11 -102 8 -108 -54 -108 l-50 0 0 -44 0 -43 57 -12
c68 -13 116 -14 163 -2 19 5 66 12 105 16 38 4 74 10 80 13 5 4 46 10 90 15
44 4 109 11 145 15 l65 7 0 52 c0 28 2 53 5 56 6 6 331 40 335 35 2 -2 12 -95
24 -207 11 -112 22 -205 24 -207 2 -2 40 -9 85 -15 71 -10 101 -8 254 15 100
15 225 41 297 63 l123 37 -6 52 -6 53 36 7 c22 4 45 2 59 -6 21 -11 24 -22 31
-101 l7 -89 51 3 51 2 -3 89 -2 88 34 -6 c20 -4 37 -2 41 4 3 6 11 8 16 4 5
-3 8 0 7 7 -2 6 12 16 30 21 17 5 32 13 32 19 0 6 -8 8 -17 6 -74 -20 -71 -22
-75 43 -2 45 0 59 10 55 6 -2 12 0 12 6 0 7 10 9 27 5 14 -4 29 -3 32 2 3 5
24 13 46 16 70 11 199 34 225 39 14 3 46 8 73 12 53 7 59 -2 27 -42 -11 -14
-20 -31 -20 -38 0 -16 -35 -47 -43 -38 -4 3 -7 -1 -7 -10 0 -13 9 -15 53 -12
28 2 52 5 52 5 0 1 22 3 50 6 27 2 51 8 53 13 2 5 18 7 36 4 28 -4 34 -2 39
16 6 25 36 39 46 22 4 -6 15 -9 24 -5 10 3 17 1 17 -6 0 -7 10 -10 28 -6 15 2
47 7 72 11 l46 6 16 -50 c9 -29 12 -51 6 -53 -5 -2 3 -24 17 -50 28 -50 115
-300 115 -330 0 -10 -5 -18 -10 -18 -15 0 -30 -44 -23 -69 4 -15 13 -21 34
-21 23 0 32 -6 39 -27 6 -16 15 -37 21 -47 11 -18 101 -295 112 -342 4 -20 1
-21 -34 -17 l-39 6 0 -62 c0 -57 2 -62 26 -71 14 -6 43 -11 65 -12 l39 -1 110
-339 c61 -186 115 -338 120 -338 6 0 10 -85 10 -215 0 -210 0 -215 -20 -215
-12 0 -31 -10 -43 -23 -12 -12 -55 -35 -94 -51 -40 -15 -73 -31 -73 -36 0 -4
-54 -26 -120 -50 -165 -58 -165 -59 38 -178 87 -50 164 -92 170 -92 6 0 16 9
22 20 8 15 21 20 51 20 22 0 49 5 60 10 16 9 19 7 19 -15 0 -22 -12 -31 -85
-67 -47 -23 -85 -48 -85 -56 0 -7 -126 -75 -290 -154 l-290 -141 0 -43 c0 -34
4 -44 20 -49 11 -3 25 -3 31 1 7 4 9 3 6 -3 -4 -6 24 -22 63 -37 41 -16 70
-34 70 -42 0 -8 1 -14 3 -14 2 0 185 -74 407 -165 222 -91 409 -165 416 -165
7 0 14 7 18 15 6 18 32 20 42 4 4 -8 -1 -9 -17 -4 -49 15 -10 -6 84 -45 53
-22 105 -40 114 -39 16 0 15 2 -2 9 -11 5 -14 9 -6 9 8 1 11 8 8 21 -3 11 0
20 6 20 10 1 -183 82 -293 124 -19 8 -174 70 -345 138 -170 68 -319 127 -329
131 -10 4 -17 10 -14 12 2 3 83 -26 179 -64 488 -192 666 -263 687 -274 19 -9
25 -8 33 3 9 13 10 13 6 0 -2 -9 7 -20 26 -27 39 -17 53 -16 83 3 20 14 22 19
12 33 -11 14 -11 14 4 3 17 -13 46 2 233 123 28 18 125 80 217 138 l167 105 4
-41 4 -42 1 47 2 46 163 102 c302 190 386 244 383 247 -2 2 -32 12 -67 23 -35
10 -118 35 -183 54 -76 23 -123 33 -129 27 -11 -11 -147 88 -143 103 1 5 53
37 115 71 l113 63 72 133 c40 74 94 175 120 224 90 168 88 165 113 165 13 0
22 4 19 9 -4 5 10 5 32 0 45 -10 111 -11 96 -1 -7 4 -19 24 -28 46 -15 36 -15
38 1 25 15 -13 16 -12 11 9 -5 18 -2 22 15 23 21 0 21 1 2 9 -22 10 -13 13 28
10 15 -1 27 3 27 8 0 5 -6 10 -12 9 -32 -1 -46 4 -44 16 4 18 16 50 27 69 5
10 9 26 8 35 0 20 -3 16 -38 -69 -14 -34 -25 -46 -35 -42 -20 8 -27 31 -10 31
8 0 14 -7 15 -16 0 -9 9 4 20 28 11 24 18 49 15 55 -3 10 -7 3 -23 -44 -4 -12
-7 -11 -13 5 -5 12 -9 14 -9 6 -1 -8 -3 -12 -6 -9 -9 9 6 38 16 32 5 -3 14 8
20 25 6 18 16 28 23 25 8 -3 16 3 20 12 8 20 -2 33 -13 16 -4 -7 -19 -11 -33
-10 -30 3 -28 33 3 41 10 3 19 13 19 22 0 9 -4 14 -9 11 -11 -7 -23 33 -14 47
3 6 28 -33 55 -86 26 -54 50 -97 53 -97 3 0 -24 60 -60 133 -45 93 -67 151
-74 197 -5 36 -8 46 -6 23 2 -24 -1 -43 -6 -43 -5 0 -9 4 -9 9 0 4 -26 11 -57
14 -32 3 -59 11 -61 17 -2 5 -19 10 -38 10 -33 0 -37 4 -64 61 -27 59 -29 85
-6 101 7 5 5 8 -6 8 -9 0 -19 -6 -22 -12 -5 -10 -7 -10 -12 0 -10 22 -21 13
-52 -46 -27 -54 -28 -61 -15 -86 13 -25 11 -34 -36 -138 -28 -61 -51 -117 -51
-124 0 -8 -4 -14 -9 -14 -5 0 -10 33 -13 74 -2 54 -8 80 -21 94 -18 19 -17 22
10 89 24 57 33 69 54 71 18 2 31 13 42 38 22 45 21 53 -2 47 -17 -4 -19 -1
-12 30 6 23 5 34 -3 33 -6 0 -35 3 -64 7 l-53 8 20 34 c11 19 16 35 11 35 -6
0 -17 -15 -26 -33 l-16 -33 -58 10 c-32 6 -61 14 -64 17 -5 4 -13 37 -15 62
-1 4 -9 7 -18 7 -15 0 -16 2 -3 10 10 7 11 10 2 10 -7 0 -15 -6 -18 -14 -6
-16 -98 -13 -196 6 l-57 11 -15 51 c-8 28 -27 96 -42 151 -15 55 -29 102 -31
104 -2 3 -10 -4 -18 -15 -11 -15 -17 -17 -32 -8 -10 6 -20 19 -21 29 -3 11 0
15 7 11 6 -4 14 0 17 8 4 9 18 16 33 16 15 0 37 7 49 16 23 16 30 58 11 70
-17 10 -32 -12 -32 -48 0 -29 -1 -30 -10 -10 -7 15 -7 30 1 47 11 23 9 25 -21
34 -28 8 -35 6 -58 -19 l-27 -28 -5 35 c-7 43 7 83 32 90 18 5 17 13 -20 156
-22 84 -42 159 -46 167 -12 29 -21 -43 -22 -180 l-1 -135 -66 -60 c-56 -51
-66 -64 -60 -83 5 -16 15 -22 37 -22 16 0 29 -5 29 -12 0 -6 9 -30 19 -52 21
-44 51 -141 51 -164 0 -8 -31 14 -69 47 -38 34 -72 57 -75 52 -3 -5 25 -36 63
-68 38 -32 70 -62 70 -66 1 -8 -93 -1 -130 9 -9 3 -22 24 -29 50 -11 39 -15
43 -23 27 -20 -35 -38 -40 -61 -17 -20 19 -21 35 -2 28 8 -3 19 3 26 16 8 16
17 19 33 14 20 -6 21 -6 5 17 -8 13 -27 25 -42 27 -14 2 -26 7 -26 11 0 16 30
33 49 28 11 -3 22 1 25 8 7 19 -3 25 -39 25 -33 0 -65 -25 -65 -51 -1 -9 -4
-8 -11 5 -25 41 10 150 42 130 4 -2 5 10 3 28 -3 18 0 46 6 63 l11 30 37 -68
c20 -37 40 -67 44 -67 4 0 -19 46 -52 102 -53 93 -57 103 -42 116 15 11 14 12
-5 3 -15 -8 -24 -8 -28 -1 -4 6 -10 8 -13 6 -4 -2 -34 10 -66 27 -57 31 -61
36 -168 213 l-110 181 16 179 c19 206 22 224 38 224 15 0 167 102 168 112 0 4
-10 9 -22 11 -16 3 -12 5 12 6 61 2 72 21 13 21 -28 0 -55 5 -58 10 -3 6 -1
10 5 10 16 0 -18 48 -38 53 -16 4 -16 5 0 6 17 1 35 38 23 49 -4 4 -15 -4 -26
-17 -23 -28 -26 -91 -4 -91 8 0 15 -4 15 -10 0 -5 -11 -10 -25 -10 -18 0 -23
4 -19 15 4 9 3 46 -1 83 -7 60 -9 64 -17 39 -9 -24 -15 -28 -42 -25 l-31 3 -1
68 c-1 37 -8 82 -15 100 -19 49 -49 88 -61 81 -6 -4 -8 -2 -4 4 10 17 -10 23
-38 13 -20 -8 -24 -7 -19 4 3 8 10 12 17 9 6 -3 2 2 -8 10 -30 24 -38 19 -30
-16 4 -18 6 -48 5 -67 -1 -18 3 -39 10 -47 15 -18 4 -18 -14 1 -10 10 -13 28
-9 60 3 35 0 50 -13 65 -22 25 -27 25 -55 2z m-40 -134 c0 -5 -8 -8 -19 -8
-14 0 -17 6 -13 25 4 24 5 24 18 8 7 -10 14 -21 14 -25z m246 7 c3 -13 1 -32
-6 -42 -10 -16 -10 -15 -5 5 9 30 -12 54 -39 46 -21 -6 -21 -6 -1 9 24 19 43
12 51 -18z m-1541 -95 c-3 -5 -15 -10 -26 -10 -10 0 -19 5 -19 10 0 6 12 10
26 10 14 0 23 -4 19 -10z m1275 -85 c13 -26 26 -42 32 -38 6 3 8 1 5 -4 -8
-13 19 -37 32 -29 5 4 13 1 17 -5 4 -7 3 -9 -3 -6 -6 4 -13 -2 -16 -13 -3 -11
-10 -20 -17 -20 -6 0 -8 5 -5 10 3 6 -2 13 -12 16 -20 8 -133 114 -133 126 0
4 18 8 39 8 37 0 41 -3 61 -45z m15 36 c3 -5 2 -12 -3 -15 -5 -3 -9 1 -9 9 0
17 3 19 12 6z m190 -11 c10 -11 16 -20 13 -20 -3 0 -13 9 -23 20 -10 11 -16
20 -13 20 3 0 13 -9 23 -20z m77 -22 c-9 -9 -12 -7 -12 12 0 19 3 21 12 12 9
-9 9 -15 0 -24z m-1744 5 c2 -8 -5 -13 -17 -13 -21 0 -35 13 -24 24 10 10 36
3 41 -11z m1257 -24 c5 -5 28 -9 52 -9 43 0 52 -7 34 -25 -5 -6 -11 -26 -13
-45 -3 -32 -6 -35 -33 -34 -70 1 -115 14 -115 32 0 10 4 22 9 28 6 5 -2 10
-21 11 -37 3 -50 13 -53 45 -3 24 -3 24 64 15 36 -4 70 -13 76 -18z m-1068
-15 c-3 -3 -12 -4 -19 -1 -8 3 -5 6 6 6 11 1 17 -2 13 -5z m1016 -116 c-6 -11
-41 -10 -48 2 -3 5 7 8 24 7 16 -1 27 -5 24 -9z m-1053 -18 c-19 -12 -30 -12
-30 -1 0 10 31 20 40 14 2 -2 -2 -8 -10 -13z m-440 -20 c-20 -13 -33 -13 -25
0 3 6 14 10 23 10 15 0 15 -2 2 -10z m1778 -4 c3 -3 -2 -6 -10 -6 -9 0 -20 -6
-26 -13 -6 -7 -38 -13 -74 -15 -75 -3 -100 -10 -92 -24 4 -5 -5 -3 -19 7 -17
10 -27 13 -32 6 -3 -6 -18 -11 -33 -11 -64 0 -71 -7 -67 -66 2 -30 7 -59 10
-64 4 -6 -8 -10 -27 -10 -23 0 -29 3 -19 9 10 6 12 22 9 54 -3 27 -1 51 6 58
8 9 5 10 -14 5 -14 -3 -30 -6 -37 -6 -8 0 -10 -7 -6 -17 4 -12 0 -10 -13 5
-17 21 -22 22 -47 11 -15 -7 -27 -18 -27 -25 0 -7 -4 -15 -8 -18 -5 -3 -8 8
-7 24 2 29 0 30 -44 31 l-46 1 35 10 c19 6 69 8 111 5 80 -5 132 0 124 13 -3
4 35 8 83 8 104 0 194 10 187 22 -3 5 1 10 7 13 16 6 68 0 76 -7z m72 -78 c0
-62 -5 -60 -13 5 -4 28 -3 47 3 47 6 0 10 -23 10 -52z m-1533 -20 c-2 -13 -4
-3 -4 22 0 25 2 35 4 23 2 -13 2 -33 0 -45z m-99 11 c-3 -20 -5 -19 -9 9 -3
20 -2 29 4 23 5 -5 7 -19 5 -32z m1432 -20 c0 -54 -2 -60 -15 -49 -10 8 -15
30 -15 61 0 37 4 49 15 49 12 0 15 -13 15 -61z m-1843 19 c-3 -7 -5 -2 -5 12
0 14 2 19 5 13 2 -7 2 -19 0 -25z m50 -35 c-2 -16 -4 -5 -4 22 0 28 2 40 4 28
2 -13 2 -35 0 -50z m55 15 c2 -21 0 -38 -4 -38 -4 0 -8 21 -7 48 1 52 6 48 11
-10z m55 -15 c-2 -16 -4 -5 -4 22 0 28 2 40 4 28 2 -13 2 -35 0 -50z m1262
-47 c-1 -51 2 -99 5 -105 4 -6 7 -51 5 -99 -1 -48 1 -97 5 -109 6 -17 3 -23
-14 -28 -15 -5 -26 -2 -31 6 -6 10 -9 11 -9 2 0 -7 -10 -13 -23 -13 -19 0 -23
6 -23 33 -1 17 -5 114 -9 213 -9 203 -13 190 63 193 l33 1 -2 -94z m-956 64
c3 -11 1 -20 -4 -20 -5 0 -9 9 -9 20 0 11 2 20 4 20 2 0 6 -9 9 -20z m805 -55
c3 -76 9 -96 22 -75 8 13 10 12 10 -2 0 -13 -12 -19 -50 -24 -46 -6 -50 -9
-50 -33 0 -14 -3 -37 -7 -50 -6 -23 -6 -22 -19 8 -25 59 -94 30 -94 -40 0 -43
8 -69 21 -69 5 0 9 29 9 65 0 37 4 65 10 65 6 0 10 -30 10 -69 0 -70 -6 -81
-46 -81 -19 0 -21 159 -1 164 6 2 32 9 57 15 l45 10 -50 -3 c-27 -2 -126 -15
-220 -29 -249 -36 -265 -38 -265 -26 0 6 4 7 10 4 5 -3 17 -2 25 3 14 7 13 11
-4 30 -14 16 -21 19 -24 10 -3 -8 -6 -5 -7 7 -1 11 -3 35 -4 53 -4 31 7 44 17
20 7 -18 27 10 20 28 -3 8 13 14 49 18 98 13 282 37 378 51 52 7 109 13 125
12 29 -2 30 -3 33 -62z m29 33 c-3 -7 -5 -2 -5 12 0 14 2 19 5 13 2 -7 2 -19
0 -25z m410 -55 c16 -12 16 -13 0 -13 -9 0 -17 -4 -17 -10 0 -5 -3 -10 -7 -10
-5 0 -9 24 -9 53 -2 44 0 48 7 22 5 -16 16 -36 26 -42z m401 10 c3 -27 0 -33
-16 -33 -13 0 -24 10 -30 29 -12 34 -6 43 23 39 15 -2 21 -12 23 -35z m-1448
-3 c0 -5 -5 -10 -11 -10 -5 0 -7 5 -4 10 3 6 8 10 11 10 2 0 4 -4 4 -10z
m1110 1 c0 -5 -7 -12 -16 -15 -14 -5 -15 -4 -4 9 14 17 20 19 20 6z m-315 -20
c3 -5 1 -12 -5 -16 -5 -3 -10 1 -10 9 0 18 6 21 15 7z m74 -52 c13 -11 22 -22
19 -24 -3 -3 -11 1 -18 10 -20 24 -49 17 -70 -17 -14 -23 -20 -27 -20 -15 0
16 46 66 60 66 3 0 16 -9 29 -20z m581 -49 c0 -5 -13 -10 -30 -10 -16 0 -30 5
-30 10 0 6 14 10 30 10 17 0 30 -4 30 -10z m-277 -37 c-7 -2 -19 -2 -25 0 -7
3 -2 5 12 5 14 0 19 -2 13 -5z m-376 -45 c-3 -8 -6 -5 -6 6 -1 11 2 17 5 13 3
-3 4 -12 1 -19z m315 7 c-2 -5 -10 -9 -17 -7 -8 1 -31 -4 -51 -13 -32 -13 -35
-13 -24 0 7 8 21 15 31 15 11 0 19 5 19 11 0 6 10 9 23 7 12 -2 21 -7 19 -13z
m278 -37 c0 -28 -2 -49 -4 -47 -8 9 -13 99 -5 99 5 0 9 -23 9 -52z m-871 -39
c-19 -11 -20 -7 -6 30 l12 34 3 -28 c2 -15 -2 -31 -9 -36z m671 6 c0 -30 -4
-55 -9 -55 -9 0 -20 98 -12 106 14 14 21 -3 21 -51z m-330 35 c0 -5 -5 -10
-12 -10 -19 0 -48 -32 -49 -54 -1 -18 -2 -19 -6 -3 -3 12 6 30 23 48 29 30 44
37 44 19z m106 -65 c8 -56 1 -75 -28 -75 -19 1 -20 2 -7 10 13 7 15 20 11 60
-6 64 14 68 24 5z m598 8 c3 -10 48 -165 101 -345 l96 -327 -21 -21 c-37 -37
-21 -100 25 -100 16 0 27 -11 40 -42 10 -24 22 -51 26 -60 7 -15 3 -18 -26
-18 -18 0 -40 6 -47 13 -7 8 -29 66 -47 131 l-34 117 21 15 c39 27 24 94 -20
94 -10 0 -21 8 -24 18 -3 9 -14 35 -23 57 -10 22 -47 136 -81 253 -53 178 -61
215 -49 223 23 15 57 10 63 -8z m-904 -38 c0 -15 -2 -17 -9 -7 -6 10 -12 5
-21 -20 -12 -32 -12 -32 -22 -10 -6 12 -17 22 -25 22 -21 0 -15 16 10 27 36
17 67 11 67 -12z m558 -27 c18 -18 14 -32 -4 -17 -9 7 -5 -4 10 -25 14 -21 26
-44 26 -51 0 -7 10 -15 21 -18 16 -4 20 -11 16 -28 -3 -12 1 -31 8 -43 8 -12
22 -58 31 -101 23 -115 37 -119 29 -10 -3 50 -8 106 -11 125 -11 69 14 14 59
-130 l46 -145 -25 -18 c-41 -32 -27 -87 23 -87 13 0 23 -5 23 -12 0 -6 9 -30
19 -52 18 -36 90 -269 105 -337 5 -24 2 -27 -57 -44 -34 -9 -70 -20 -79 -22
-12 -4 -18 0 -18 10 0 8 -4 17 -9 19 -4 2 -29 71 -55 155 l-48 151 22 29 c29
40 19 82 -20 90 -29 5 -42 29 -81 143 -11 30 -26 76 -35 102 -16 49 -13 80 14
111 10 11 11 17 3 17 -7 0 -10 4 -7 9 3 5 -6 41 -19 82 -14 40 -25 81 -25 91
0 21 20 24 38 6z m-9 -164 c5 3 7 -3 4 -13 -5 -20 -29 -35 -37 -23 -2 4 -13
41 -24 82 -11 41 -23 84 -27 95 -3 11 12 -17 34 -63 22 -46 45 -81 50 -78z
m-639 137 c0 -5 -11 -11 -25 -13 -14 -3 -25 -2 -25 3 0 4 10 10 23 12 12 2 23
5 25 6 1 0 2 -3 2 -8z m-1067 -123 c3 -48 2 -90 -2 -93 -5 -2 -13 34 -20 82
-8 67 -8 89 1 94 7 5 13 7 14 6 1 -1 4 -41 7 -89z m2443 -249 c10 -20 13 -41
9 -61 -8 -36 -17 -28 -33 28 -22 77 -9 96 24 33z m387 -206 c-7 -2 -19 -2 -25
0 -7 3 -2 5 12 5 14 0 19 -2 13 -5z m-463 -369 c0 -8 -4 -12 -10 -9 -5 3 -10
10 -10 16 0 5 5 9 10 9 6 0 10 -7 10 -16z m240 -25 c0 -5 -4 -9 -10 -9 -5 0
-10 7 -10 16 0 8 5 12 10 9 6 -3 10 -10 10 -16z m-219 -45 c3 -2 14 -32 23
-68 16 -57 16 -68 3 -98 -8 -18 -19 -44 -24 -58 -9 -23 -11 -21 -27 35 -9 33
-25 87 -36 121 -28 84 -27 86 18 78 20 -4 40 -8 43 -10z m662 -4 c32 -6 65 -9
73 -6 16 6 18 -2 5 -23 -5 -8 -16 -11 -30 -6 -12 4 -44 -2 -76 -14 -31 -12
-57 -21 -59 -21 -1 0 -3 20 -3 45 0 37 3 44 16 41 9 -3 42 -10 74 -16z m-324
-43 c30 -7 57 -18 59 -26 3 -10 0 -12 -12 -8 -10 4 -49 10 -86 13 -44 4 -71
12 -74 20 -7 17 35 17 113 1z m-584 -92 c-3 -31 -12 -58 -18 -59 -7 -2 -31 -9
-54 -15 -29 -8 -43 -18 -44 -29 -1 -19 -49 114 -49 135 0 7 34 23 78 36 73 23
77 23 86 6 5 -10 5 -43 1 -74z m925 81 c0 -2 -8 -10 -17 -17 -16 -13 -17 -12
-4 4 13 16 21 21 21 13z m239 -32 c-9 -11 -15 -12 -17 -5 -3 9 -7 9 -18 0 -11
-9 -14 -8 -14 5 0 11 9 16 31 16 28 0 30 -2 18 -16z m-653 -53 c-3 -5 16 -6
42 -4 39 5 45 3 35 -8 -12 -12 -79 -17 -90 -6 -5 6 5 27 13 27 3 0 3 -4 0 -9z
m550 -6 c19 -8 51 -30 69 -50 24 -24 44 -35 64 -35 17 0 32 -4 35 -9 3 -5 16
-7 29 -4 18 4 19 3 7 -6 -8 -6 -22 -9 -30 -6 -47 14 -69 13 -63 -2 5 -12 7
-12 14 -2 5 8 7 2 7 -17 -1 -17 3 -37 7 -44 12 -19 14 -240 2 -240 -5 0 -4 -6
2 -14 8 -9 8 -16 2 -20 -6 -4 -8 -13 -4 -21 3 -8 0 -15 -7 -15 -7 0 -9 -8 -5
-20 4 -12 2 -20 -5 -20 -7 0 -9 -8 -5 -20 4 -12 2 -20 -5 -20 -6 0 -8 -5 -5
-10 4 -6 2 -16 -3 -23 -6 -7 -11 -16 -13 -22 -9 -37 -12 -45 -20 -45 -5 0 -9
-6 -9 -14 0 -20 -84 -110 -123 -133 -45 -27 -107 -28 -160 -5 -42 18 -88 65
-86 86 0 5 -4 12 -10 16 -7 3 -13 21 -14 38 -1 18 -6 32 -11 32 -4 0 -6 9 -3
20 3 11 1 20 -5 20 -6 0 -7 8 -4 17 4 9 1 20 -6 25 -10 6 -10 10 2 18 13 9 13
11 0 20 -12 7 -12 12 -3 21 10 10 10 16 1 27 -9 10 -8 16 3 23 12 8 12 10 -1
19 -13 8 -13 11 -1 19 8 5 11 16 8 25 -3 8 -2 18 4 22 5 3 7 14 4 25 -4 11 -2
19 5 19 7 0 9 8 5 20 -4 12 -2 20 5 20 7 0 9 8 5 20 -4 12 -2 20 5 20 7 0 10
8 7 19 -3 11 1 22 9 25 7 3 11 12 8 21 -3 8 -1 15 5 15 6 0 11 9 11 20 0 11 5
20 10 20 6 0 10 7 10 15 0 8 7 15 15 15 8 0 14 5 13 12 -2 6 25 25 60 42 34
17 62 36 62 43 0 18 62 17 106 -2z m375 -119 c10 6 13 -9 3 -19 -9 -9 -33 16
-26 28 3 5 7 4 10 -3 2 -7 8 -10 13 -6z m-208 -23 c-7 -2 -19 -2 -25 0 -7 3
-2 5 12 5 14 0 19 -2 13 -5z m297 -23 c0 -5 -5 -10 -11 -10 -5 0 -7 5 -4 10 3
6 8 10 11 10 2 0 4 -4 4 -10z m80 -26 c0 -16 -95 -244 -102 -244 -4 0 -8 4 -8
10 0 20 92 240 101 240 5 0 9 -3 9 -6z m41 -31 c13 -16 12 -17 -3 -4 -10 7
-18 15 -18 17 0 8 8 3 21 -13z m52 -9 c-3 -9 -9 -12 -12 -7 -3 4 -10 11 -15
16 -5 4 0 7 12 7 15 0 20 -4 15 -16z m63 -51 c27 -62 28 -67 14 -58 -18 11
-24 -28 -8 -56 12 -21 13 -26 3 -23 -7 3 -16 16 -19 30 -4 13 -12 24 -19 24
-7 0 -21 14 -31 30 -17 30 -17 32 0 75 10 24 22 41 27 38 4 -3 19 -30 33 -60z
m-106 -119 c-11 -27 -18 -37 -15 -22 8 40 25 82 31 76 2 -3 -5 -27 -16 -54z
m87 -60 c2 -10 0 -14 -3 -7 -3 7 -12 9 -20 6 -10 -4 -12 0 -8 11 8 22 28 15
31 -10z m24 -43 c7 11 9 11 9 -3 0 -10 -7 -16 -19 -15 -13 1 -17 6 -12 22 5
19 5 19 9 1 3 -15 6 -16 13 -5z m-91 -1 c0 -5 -4 -10 -10 -10 -5 0 -10 5 -10
10 0 6 5 10 10 10 6 0 10 -4 10 -10z m60 -44 c0 -2 -7 -17 -15 -32 -9 -18 -15
-23 -15 -12 0 9 -5 18 -12 20 -17 6 -3 23 21 25 12 1 21 0 21 -1z m-1110 -20
c0 -3 -4 -8 -10 -11 -5 -3 -10 -1 -10 4 0 6 5 11 10 11 6 0 10 -2 10 -4z m887
-124 c-44 -72 -101 -186 -116 -234 -7 -20 -18 -42 -26 -48 -8 -6 -11 -18 -8
-26 3 -8 -2 -23 -11 -33 -17 -18 -16 -19 23 -26 23 -4 43 -10 45 -14 3 -4 -24
-22 -60 -39 -35 -18 -64 -28 -64 -24 0 12 26 81 33 88 4 4 7 17 7 29 0 12 9
30 20 40 11 10 20 25 20 32 0 42 160 349 168 324 2 -7 -12 -38 -31 -69z m193
48 c0 -5 -5 -10 -11 -10 -5 0 -7 5 -4 10 3 6 8 10 11 10 2 0 4 -4 4 -10z
m-188 -155 c4 -32 20 -35 33 -6 10 21 55 31 55 12 0 -15 -20 -24 -20 -9 -1 33
-30 -30 -31 -66 l-1 -41 -10 30 c-6 17 -16 37 -23 45 -18 21 -28 60 -16 60 5
0 11 -11 13 -25z m-1493 -167 c1 -20 -2 -39 -6 -41 -5 -3 -9 34 -10 81 -1 73
0 80 7 42 5 -25 9 -62 9 -82z m961 -83 l0 -115 -28 0 c-16 0 -29 6 -30 13 0 6
-1 30 -3 52 -1 22 -6 45 -11 52 -15 18 -5 36 22 40 30 4 29 3 32 41 1 18 6 32
10 32 4 0 8 -52 8 -115z m-133 73 c-3 -7 -5 -2 -5 12 0 14 2 19 5 13 2 -7 2
-19 0 -25z m-746 2 c12 -7 19 -21 19 -40 0 -36 -11 -39 -25 -7 -6 14 -18 22
-33 21 -15 0 -22 5 -22 18 0 20 30 24 61 8z m199 -130 c0 -106 -3 -130 -14
-130 -18 0 -46 27 -46 45 0 7 10 16 23 21 16 6 1 9 -50 11 -72 4 -73 4 -72 31
0 24 1 25 9 7 7 -16 9 -11 9 22 1 23 -4 54 -11 68 -14 32 2 47 42 41 20 -3 92
6 108 13 1 0 2 -57 2 -129z m-280 21 c0 -33 39 -37 67 -7 13 14 26 26 28 26 3
0 4 -53 4 -117 -1 -65 -4 -108 -6 -95 -3 14 -17 28 -39 37 -33 14 -34 16 -34
69 0 31 -4 56 -10 56 -5 0 -10 -21 -10 -46 0 -27 -4 -43 -10 -39 -5 3 -10 35
-10 71 0 36 4 64 10 64 6 0 10 -9 10 -19z m127 -138 c-3 -10 -5 -2 -5 17 0 19
2 27 5 18 2 -10 2 -26 0 -35z m-297 28 c0 -5 -18 -11 -40 -13 -39 -3 -43 6 -5
15 33 8 45 7 45 -2z m-90 -109 c0 -67 -8 -72 -87 -56 -81 17 -97 27 -58 34 21
4 31 12 33 27 2 15 14 24 40 31 69 18 72 17 72 -36z m504 -22 c-6 -5 -24 21
-24 34 0 6 6 1 14 -10 8 -10 12 -21 10 -24z m875 -168 c52 -36 100 -65 107
-65 7 0 12 -5 11 -10 -1 -5 4 -12 12 -15 8 -2 11 -1 8 4 -3 5 9 10 26 11 24 1
27 -1 13 -6 -18 -7 -18 -8 5 -24 13 -9 17 -17 10 -17 -11 0 -11 -3 -1 -15 7
-9 20 -13 29 -10 8 3 12 3 8 -1 -4 -4 3 -19 15 -33 17 -18 9 -15 -27 12 -27
20 -106 76 -174 124 -124 89 -178 131 -151 117 8 -4 57 -36 109 -72z m-880 1
c0 -10 -3 -13 -5 -7 -3 7 -15 10 -27 8 -21 -4 -21 -4 -2 5 29 14 35 13 34 -6z
m-66 -24 c-4 -16 -8 -17 -14 -7 -13 19 -11 28 5 28 9 0 12 -7 9 -21z m867 -80
l0 -50 33 17 c17 9 41 25 53 35 20 19 54 17 54 -2 0 -11 -75 -66 -102 -75 -31
-9 -69 42 -57 76 9 24 8 24 -6 6 -15 -20 -15 -20 -15 0 0 11 6 26 13 33 10 11
10 13 0 7 -9 -5 -13 0 -13 13 0 12 -5 21 -11 21 -5 0 -7 5 -3 12 5 8 15 2 31
-16 17 -21 23 -39 23 -77z m-805 21 c9 -28 69 -67 127 -81 35 -9 48 -18 48
-31 0 -10 -1 -18 -2 -18 -14 1 -103 32 -128 45 -42 22 -80 63 -80 86 0 25 27
24 35 -1z m235 -52 c21 -20 36 -39 33 -41 -2 -3 19 -11 46 -18 28 -7 49 -14
47 -17 -8 -7 -161 31 -168 42 -4 6 -7 34 -7 61 1 28 4 41 6 30 3 -11 22 -37
43 -57z m1050 -12 c0 -2 -7 -7 -16 -10 -8 -3 -12 -2 -9 4 6 10 25 14 25 6z
m-569 -73 c13 -15 11 -16 -16 -9 -41 10 -56 26 -23 26 14 0 32 -7 39 -17z
m449 -3 c0 -5 -5 -10 -11 -10 -5 0 -7 5 -4 10 3 6 8 10 11 10 2 0 4 -4 4 -10z
m-110 -50 c0 -7 6 -7 20 0 11 6 20 8 20 6 0 -3 -13 -12 -28 -20 -26 -13 -28
-13 -29 5 -1 10 2 19 8 19 5 0 9 -5 9 -10z m-1994 -237 c-5 -5 -156 51 -156
58 0 4 36 -7 80 -24 44 -17 78 -32 76 -34z m69 -31 c-3 -3 -11 0 -18 7 -9 10
-8 11 6 5 10 -3 15 -9 12 -12z"/>
<path d="M3385 5070 c-3 -5 -1 -10 4 -10 6 0 11 5 11 10 0 6 -2 10 -4 10 -3 0
-8 -4 -11 -10z"/>
<path d="M2941 5014 c0 -11 3 -14 6 -6 3 7 2 16 -1 19 -3 4 -6 -2 -5 -13z"/>
<path d="M2795 4990 c-3 -5 1 -10 9 -10 9 0 16 5 16 10 0 6 -4 10 -9 10 -6 0
-13 -4 -16 -10z"/>
<path d="M2820 4948 c0 -4 4 -8 9 -8 6 0 12 4 15 8 3 5 -1 9 -9 9 -8 0 -15 -4
-15 -9z"/>
<path d="M3937 4451 c1 -23 -2 -41 -6 -41 -5 0 -11 -6 -14 -14 -6 -14 16 -16
29 -3 13 13 14 64 1 81 -11 15 -12 11 -10 -23z"/>
<path d="M3936 4335 c4 -8 8 -15 10 -15 2 0 4 7 4 15 0 8 -4 15 -10 15 -5 0
-7 -7 -4 -15z"/>
<path d="M5183 3623 c9 -2 25 -2 35 0 9 3 1 5 -18 5 -19 0 -27 -2 -17 -5z"/>
<path d="M5261 3338 c-8 -15 -10 -35 -7 -45 7 -17 8 -17 17 0 6 10 9 30 7 45
l-4 27 -13 -27z"/>
<path d="M5295 3122 c-26 -22 -27 -70 -2 -78 10 -3 32 -7 50 -9 18 -1 49 -6
70 -10 30 -6 37 -4 37 9 0 9 5 16 10 16 9 0 4 46 -5 58 -4 4 -117 31 -130 31
-5 0 -19 -7 -30 -17z"/>
<path d="M5380 2891 c-13 -25 -13 -51 0 -51 11 0 12 3 15 43 2 32 -1 34 -15 8z"/>
<path d="M4602 2498 c0 -7 -3 -26 -7 -41 -4 -20 -2 -28 6 -25 14 5 23 78 10
78 -4 0 -8 -6 -9 -12z"/>
<path d="M5620 1905 c7 -8 17 -15 22 -15 6 0 5 7 -2 15 -7 8 -17 15 -22 15 -6
0 -5 -7 2 -15z"/>
<path d="M4352 5667 c2 -16 11 -23 31 -25 26 -3 27 -2 16 17 -7 11 -21 22 -32
25 -14 3 -18 0 -15 -17z"/>
<path d="M2790 5501 c0 -6 4 -13 10 -16 6 -3 7 1 4 9 -7 18 -14 21 -14 7z"/>
<path d="M3423 5503 c15 -2 39 -2 55 0 15 2 2 4 -28 4 -30 0 -43 -2 -27 -4z"/>
<path d="M2720 5451 c0 -6 4 -13 10 -16 6 -3 7 1 4 9 -7 18 -14 21 -14 7z"/>
<path d="M4670 5447 c0 -2 15 -16 33 -33 l32 -29 -29 33 c-28 30 -36 37 -36
29z"/>
<path d="M3300 5420 l-65 -7 55 0 c30 0 84 3 120 7 l65 7 -55 0 c-30 0 -84 -3
-120 -7z"/>
<path d="M3148 5403 c18 -2 45 -2 60 0 15 2 0 4 -33 4 -33 0 -45 -2 -27 -4z"/>
<path d="M2930 5390 l-65 -7 68 -1 c39 -1 67 2 67 8 0 6 -1 9 -2 8 -2 -1 -32
-4 -68 -8z"/>
<path d="M3033 5393 c15 -2 39 -2 55 0 15 2 2 4 -28 4 -30 0 -43 -2 -27 -4z"/>
<path d="M2823 5373 c9 -2 23 -2 30 0 6 3 -1 5 -18 5 -16 0 -22 -2 -12 -5z"/>
<path d="M2802 5335 c0 -16 2 -22 5 -12 2 9 2 23 0 30 -3 6 -5 -1 -5 -18z"/>
<path d="M4608 5300 c4 -12 11 -21 15 -21 4 1 11 1 16 1 19 0 3 35 -17 38 -19
3 -21 0 -14 -18z"/>
<path d="M2090 5250 c-19 -4 -30 -8 -23 -9 6 0 17 -3 25 -6 7 -3 22 1 33 9 22
17 18 17 -35 6z"/>
<path d="M4631 5248 c-1 -20 14 -24 25 -6 4 6 3 8 -4 4 -5 -3 -13 0 -15 6 -3
8 -6 6 -6 -4z"/>
<path d="M4731 5206 c-8 -9 -14 -30 -13 -47 1 -54 44 -81 56 -36 10 36 7 54
-12 77 -16 20 -19 21 -31 6z"/>
<path d="M4463 5153 c-13 -8 -23 -24 -23 -34 0 -32 54 -21 92 18 l32 33 -40
-1 c-21 0 -49 -7 -61 -16z"/>
<path d="M4466 5069 c-38 -11 -56 -28 -56 -55 0 -23 33 -54 59 -54 17 0 40 29
41 53 0 9 3 17 8 17 4 0 13 9 19 19 10 17 9 19 -16 23 -15 2 -40 1 -55 -3z"/>
<path d="M4882 5025 c0 -22 3 -65 8 -95 l7 -55 1 45 c0 25 -3 68 -8 95 -7 48
-7 49 -8 10z"/>
<path d="M4575 4939 c-11 -4 -31 -8 -45 -8 -18 -1 -46 -21 -90 -66 l-64 -65
24 -42 c39 -71 47 -81 55 -67 5 7 0 18 -11 27 -16 13 -17 14 -1 9 9 -4 17 -2
17 3 0 5 -8 14 -17 19 -17 10 -17 10 0 11 10 0 28 9 40 20 12 11 26 19 33 16
6 -2 17 0 25 5 10 6 10 9 2 9 -21 0 -14 20 10 29 35 13 49 36 45 74 -3 30 -6
33 -23 26z m-70 -119 c-3 -5 -13 -10 -21 -10 -8 0 -14 5 -14 10 0 6 9 10 21
10 11 0 17 -4 14 -10z"/>
<path d="M4811 4911 c-14 -25 -14 -88 -1 -96 16 -10 42 41 38 76 -4 38 -22 48
-37 20z"/>
<path d="M4701 4868 c0 -18 3 -64 8 -101 6 -56 4 -76 -11 -108 -11 -26 -14
-47 -9 -61 7 -19 10 -17 26 25 10 26 24 52 31 58 14 12 9 94 -7 115 -5 6 -6
13 -3 17 3 3 3 24 -1 46 -8 51 -35 57 -34 9z"/>
<path d="M4550 4754 c-39 -34 -39 -77 0 -82 27 -3 71 43 82 86 5 19 2 22 -22
22 -16 0 -42 -11 -60 -26z"/>
<path d="M4823 4677 c-49 -52 -64 -115 -46 -202 5 -25 10 -13 29 70 13 55 30
113 39 128 24 40 14 42 -22 4z"/>
<path d="M3088 4676 c-25 -18 -22 -24 7 -18 14 2 25 11 25 18 0 17 -10 17 -32
0z"/>
<path d="M2958 4653 c-10 -2 -18 -9 -18 -14 0 -15 43 -7 48 9 4 12 0 13 -30 5z"/>
<path d="M4560 4641 c0 -6 5 -13 10 -16 6 -3 10 1 10 9 0 9 -4 16 -10 16 -5 0
-10 -4 -10 -9z"/>
<path d="M3571 4605 c12 -19 23 -35 25 -35 2 0 -4 16 -13 35 -9 19 -20 35 -25
35 -4 0 2 -16 13 -35z"/>
<path d="M3050 4619 c0 -5 -10 -9 -22 -7 -17 2 -21 -2 -22 -24 -2 -32 14 -36
44 -11 21 18 27 53 10 53 -5 0 -10 -5 -10 -11z"/>
<path d="M4500 4595 c0 -5 5 -17 10 -25 5 -8 10 -10 10 -5 0 6 -5 17 -10 25
-5 8 -10 11 -10 5z"/>
<path d="M4862 4570 c0 -14 2 -19 5 -12 2 6 2 18 0 25 -3 6 -5 1 -5 -13z"/>
<path d="M4617 4534 c-7 -12 15 -84 26 -84 9 0 0 55 -13 79 -4 7 -10 9 -13 5z"/>
<path d="M4839 4480 c-13 -50 -13 -61 -1 -77 13 -17 14 -17 7 5 -4 13 -1 46 5
73 17 71 7 70 -11 -1z"/>
<path d="M4716 4388 c-4 -9 -2 -34 5 -55 10 -32 13 -35 19 -18 4 11 4 25 0 30
-5 6 -10 21 -12 35 -4 21 -6 22 -12 8z"/>
<path d="M4780 4381 c-11 -22 -13 -52 -4 -75 5 -13 9 -14 20 -5 18 15 18 29
-1 29 -8 0 -15 5 -15 10 0 6 7 13 15 16 8 4 15 10 15 16 0 5 -6 6 -12 2 -9 -5
-9 -2 1 9 8 11 9 17 3 17 -6 0 -16 -9 -22 -19z"/>
<path d="M4715 4015 c-3 -8 -7 -21 -9 -29 -3 -8 1 -22 8 -32 12 -16 14 -16 30
9 11 16 15 34 11 47 -7 23 -33 27 -40 5z"/>
<path d="M5725 3589 c-10 -30 0 -33 13 -4 6 14 7 25 2 25 -5 0 -12 -9 -15 -21z"/>
<path d="M5975 3559 c17 -20 36 -44 43 -55 7 -11 6 -6 -2 11 -8 17 -27 41 -42
55 l-28 25 29 -36z"/>
<path d="M5715 3531 c-3 -5 -1 -12 5 -16 5 -3 10 1 10 9 0 18 -6 21 -15 7z"/>
<path d="M6061 3384 c0 -11 3 -14 6 -6 3 7 2 16 -1 19 -3 4 -6 -2 -5 -13z"/>
<path d="M6125 2990 c3 -5 8 -10 11 -10 2 0 4 5 4 10 0 6 -5 10 -11 10 -5 0
-7 -4 -4 -10z"/>
<path d="M6186 2905 c-9 -26 -7 -32 5 -12 6 10 9 21 6 23 -2 3 -7 -2 -11 -11z"/>
<path d="M6153 2819 c-2 -23 3 -25 10 -4 4 8 3 16 -1 19 -4 3 -9 -4 -9 -15z"/>
<path d="M5927 2613 c-9 -17 -14 -39 -11 -48 10 -25 36 18 32 53 l-3 27 -18
-32z"/>
<path d="M5817 2399 c-43 -83 -77 -152 -75 -154 2 -2 68 33 148 78 l145 82 0
55 0 55 -53 0 c-39 0 -57 5 -66 18 -7 9 -15 17 -17 17 -2 0 -39 -68 -82 -151z"/>
<path d="M5338 1363 c7 -3 16 -2 19 1 4 3 -2 6 -13 5 -11 0 -14 -3 -6 -6z"/>
</g>
</svg>
